<svg xmlns="http://www.w3.org/2000/svg" version="1.1" xmlns:xlink="http://www.w3.org/1999/xlink" xmlns:svgjs="http://svgjs.dev/svgjs" width="1440" height="560" preserveAspectRatio="none" viewBox="0 0 1440 560">
    <g mask="url(&quot;#SvgjsMask1012&quot;)" fill="none">
        <path d="M-93.05 491.33L-93.05 491.33" stroke="#132e65" stroke-width="1.5"></path>
        <path d="M-93.05 491.33L39.88 497.48" stroke="#132e65" stroke-width="1.5"></path>
        <path d="M-93.05 491.33L-75.33 711.53" stroke="#132e65" stroke-width="1.5"></path>
        <path d="M-93.05 491.33L91.16 669.53" stroke="#132e65" stroke-width="1.5"></path>
        <path d="M-93.05 491.33L226.17 558.1" stroke="#132e65" stroke-width="1.5"></path>
        <path d="M-93.05 491.33L240.85 366.3" stroke="#132e65" stroke-width="1.5"></path>
        <path d="M-75.33 711.53L-75.33 711.53" stroke="#132e65" stroke-width="1.5"></path>
        <path d="M-75.33 711.53L91.16 669.53" stroke="#132e65" stroke-width="1.5"></path>
        <path d="M-75.33 711.53L39.88 497.48" stroke="#132e65" stroke-width="1.5"></path>
        <path d="M-75.33 711.53L241.87 691.63" stroke="#132e65" stroke-width="1.5"></path>
        <path d="M-75.33 711.53L226.17 558.1" stroke="#132e65" stroke-width="1.5"></path>
        <path d="M39.88 497.48L39.88 497.48" stroke="#132e65" stroke-width="1.5"></path>
        <path d="M39.88 497.48L91.16 669.53" stroke="#132e65" stroke-width="1.5"></path>
        <path d="M39.88 497.48L226.17 558.1" stroke="#132e65" stroke-width="1.5"></path>
        <path d="M91.16 669.53L91.16 669.53" stroke="#132e65" stroke-width="1.5"></path>
        <path d="M91.16 669.53L241.87 691.63" stroke="#132e65" stroke-width="1.5"></path>
        <path d="M91.16 669.53L226.17 558.1" stroke="#132e65" stroke-width="1.5"></path>
        <path d="M91.16 669.53L406.99 701" stroke="#132e65" stroke-width="1.5"></path>
        <path d="M240.85 366.3L240.85 366.3" stroke="#132e65" stroke-width="1.5"></path>
        <path d="M240.85 366.3L345.91 410.89" stroke="#132e65" stroke-width="1.5"></path>
        <path d="M240.85 366.3L226.17 558.1" stroke="#132e65" stroke-width="1.5"></path>
        <path d="M226.17 558.1L226.17 558.1" stroke="#132e65" stroke-width="1.5"></path>
        <path d="M226.17 558.1L241.87 691.63" stroke="#132e65" stroke-width="1.5"></path>
        <path d="M241.87 691.63L241.87 691.63" stroke="#132e65" stroke-width="1.5"></path>
        <path d="M241.87 691.63L406.99 701" stroke="#132e65" stroke-width="1.5"></path>
        <path d="M241.87 691.63L411.42 548.88" stroke="#132e65" stroke-width="1.5"></path>
        <path d="M345.91 410.89L345.91 410.89" stroke="#132e65" stroke-width="1.5"></path>
        <path d="M345.91 410.89L411.42 548.88" stroke="#132e65" stroke-width="1.5"></path>
        <path d="M411.42 548.88L411.42 548.88" stroke="#132e65" stroke-width="1.5"></path>
        <path d="M411.42 548.88L517.84 553.45" stroke="#132e65" stroke-width="1.5"></path>
        <path d="M406.99 701L406.99 701" stroke="#132e65" stroke-width="1.5"></path>
        <path d="M406.99 701L411.42 548.88" stroke="#132e65" stroke-width="1.5"></path>
        <path d="M406.99 701L517.84 553.45" stroke="#132e65" stroke-width="1.5"></path>
        <path d="M505.45 392.54L505.45 392.54" stroke="#132e65" stroke-width="1.5"></path>
        <path d="M505.45 392.54L345.91 410.89" stroke="#132e65" stroke-width="1.5"></path>
        <path d="M505.45 392.54L666.27 388.02" stroke="#132e65" stroke-width="1.5"></path>
        <path d="M517.84 553.45L517.84 553.45" stroke="#132e65" stroke-width="1.5"></path>
        <path d="M517.84 553.45L650.99 491.01" stroke="#132e65" stroke-width="1.5"></path>
        <path d="M517.84 553.45L505.45 392.54" stroke="#132e65" stroke-width="1.5"></path>
        <path d="M517.84 553.45L639.09 672.77" stroke="#132e65" stroke-width="1.5"></path>
        <path d="M653.92 238.06L653.92 238.06" stroke="#132e65" stroke-width="1.5"></path>
        <path d="M653.92 238.06L666.27 388.02" stroke="#132e65" stroke-width="1.5"></path>
        <path d="M653.92 238.06L843.42 229.11" stroke="#132e65" stroke-width="1.5"></path>
        <path d="M666.27 388.02L666.27 388.02" stroke="#132e65" stroke-width="1.5"></path>
        <path d="M666.27 388.02L650.99 491.01" stroke="#132e65" stroke-width="1.5"></path>
        <path d="M666.27 388.02L793.19 376.24" stroke="#132e65" stroke-width="1.5"></path>
        <path d="M650.99 491.01L650.99 491.01" stroke="#132e65" stroke-width="1.5"></path>
        <path d="M639.09 672.77L639.09 672.77" stroke="#132e65" stroke-width="1.5"></path>
        <path d="M639.09 672.77L819.92 674.48" stroke="#132e65" stroke-width="1.5"></path>
        <path d="M639.09 672.77L650.99 491.01" stroke="#132e65" stroke-width="1.5"></path>
        <path d="M639.09 672.77L406.99 701" stroke="#132e65" stroke-width="1.5"></path>
        <path d="M843.01 80.29L843.01 80.29" stroke="#132e65" stroke-width="1.5"></path>
        <path d="M843.01 80.29L946.36 96.58" stroke="#132e65" stroke-width="1.5"></path>
        <path d="M843.01 80.29L843.42 229.11" stroke="#132e65" stroke-width="1.5"></path>
        <path d="M843.01 80.29L983.72 231.33" stroke="#132e65" stroke-width="1.5"></path>
        <path d="M843.01 80.29L956.72 -97.69" stroke="#132e65" stroke-width="1.5"></path>
        <path d="M843.01 80.29L653.92 238.06" stroke="#132e65" stroke-width="1.5"></path>
        <path d="M843.42 229.11L843.42 229.11" stroke="#132e65" stroke-width="1.5"></path>
        <path d="M843.42 229.11L983.72 231.33" stroke="#132e65" stroke-width="1.5"></path>
        <path d="M843.42 229.11L793.19 376.24" stroke="#132e65" stroke-width="1.5"></path>
        <path d="M843.42 229.11L946.36 96.58" stroke="#132e65" stroke-width="1.5"></path>
        <path d="M843.42 229.11L968.84 341.73" stroke="#132e65" stroke-width="1.5"></path>
        <path d="M793.19 376.24L793.19 376.24" stroke="#132e65" stroke-width="1.5"></path>
        <path d="M819.92 674.48L819.92 674.48" stroke="#132e65" stroke-width="1.5"></path>
        <path d="M819.92 674.48L969.11 651.83" stroke="#132e65" stroke-width="1.5"></path>
        <path d="M819.92 674.48L968.4 488.92" stroke="#132e65" stroke-width="1.5"></path>
        <path d="M819.92 674.48L650.99 491.01" stroke="#132e65" stroke-width="1.5"></path>
        <path d="M819.92 674.48L793.19 376.24" stroke="#132e65" stroke-width="1.5"></path>
        <path d="M956.72 -97.69L956.72 -97.69" stroke="#132e65" stroke-width="1.5"></path>
        <path d="M956.72 -97.69L946.36 96.58" stroke="#132e65" stroke-width="1.5"></path>
        <path d="M956.72 -97.69L1160.01 -105.3" stroke="#132e65" stroke-width="1.5"></path>
        <path d="M956.72 -97.69L1241.47 45.15" stroke="#132e65" stroke-width="1.5"></path>
        <path d="M956.72 -97.69L983.72 231.33" stroke="#132e65" stroke-width="1.5"></path>
        <path d="M946.36 96.58L946.36 96.58" stroke="#132e65" stroke-width="1.5"></path>
        <path d="M946.36 96.58L983.72 231.33" stroke="#132e65" stroke-width="1.5"></path>
        <path d="M946.36 96.58L1089.65 213.08" stroke="#132e65" stroke-width="1.5"></path>
        <path d="M983.72 231.33L983.72 231.33" stroke="#132e65" stroke-width="1.5"></path>
        <path d="M983.72 231.33L1089.65 213.08" stroke="#132e65" stroke-width="1.5"></path>
        <path d="M983.72 231.33L968.84 341.73" stroke="#132e65" stroke-width="1.5"></path>
        <path d="M983.72 231.33L1121.14 377.56" stroke="#132e65" stroke-width="1.5"></path>
        <path d="M968.84 341.73L968.84 341.73" stroke="#132e65" stroke-width="1.5"></path>
        <path d="M968.84 341.73L968.4 488.92" stroke="#132e65" stroke-width="1.5"></path>
        <path d="M968.84 341.73L1121.14 377.56" stroke="#132e65" stroke-width="1.5"></path>
        <path d="M968.4 488.92L968.4 488.92" stroke="#132e65" stroke-width="1.5"></path>
        <path d="M968.4 488.92L969.11 651.83" stroke="#132e65" stroke-width="1.5"></path>
        <path d="M968.4 488.92L1121.14 377.56" stroke="#132e65" stroke-width="1.5"></path>
        <path d="M968.4 488.92L1155.31 529.66" stroke="#132e65" stroke-width="1.5"></path>
        <path d="M968.4 488.92L793.19 376.24" stroke="#132e65" stroke-width="1.5"></path>
        <path d="M969.11 651.83L969.11 651.83" stroke="#132e65" stroke-width="1.5"></path>
        <path d="M1160.01 -105.3L1160.01 -105.3" stroke="#132e65" stroke-width="1.5"></path>
        <path d="M1160.01 -105.3L1306.4 -52.34" stroke="#132e65" stroke-width="1.5"></path>
        <path d="M1160.01 -105.3L1241.47 45.15" stroke="#132e65" stroke-width="1.5"></path>
        <path d="M1160.01 -105.3L1414.8 -63.74" stroke="#132e65" stroke-width="1.5"></path>
        <path d="M1160.01 -105.3L1412.02 45.79" stroke="#132e65" stroke-width="1.5"></path>
        <path d="M1089.65 213.08L1089.65 213.08" stroke="#132e65" stroke-width="1.5"></path>
        <path d="M1089.65 213.08L1241.16 194.04" stroke="#132e65" stroke-width="1.5"></path>
        <path d="M1089.65 213.08L1121.14 377.56" stroke="#132e65" stroke-width="1.5"></path>
        <path d="M1089.65 213.08L968.84 341.73" stroke="#132e65" stroke-width="1.5"></path>
        <path d="M1121.14 377.56L1121.14 377.56" stroke="#132e65" stroke-width="1.5"></path>
        <path d="M1121.14 377.56L1251.94 402.62" stroke="#132e65" stroke-width="1.5"></path>
        <path d="M1121.14 377.56L1155.31 529.66" stroke="#132e65" stroke-width="1.5"></path>
        <path d="M1155.31 529.66L1155.31 529.66" stroke="#132e65" stroke-width="1.5"></path>
        <path d="M1155.31 529.66L1259.37 497.08" stroke="#132e65" stroke-width="1.5"></path>
        <path d="M1155.31 529.66L1251.94 402.62" stroke="#132e65" stroke-width="1.5"></path>
        <path d="M1155.31 529.66L1140.47 707.89" stroke="#132e65" stroke-width="1.5"></path>
        <path d="M1155.31 529.66L1309.93 648.43" stroke="#132e65" stroke-width="1.5"></path>
        <path d="M1140.47 707.89L1140.47 707.89" stroke="#132e65" stroke-width="1.5"></path>
        <path d="M1140.47 707.89L1309.93 648.43" stroke="#132e65" stroke-width="1.5"></path>
        <path d="M1140.47 707.89L969.11 651.83" stroke="#132e65" stroke-width="1.5"></path>
        <path d="M1140.47 707.89L1259.37 497.08" stroke="#132e65" stroke-width="1.5"></path>
        <path d="M1306.4 -52.34L1306.4 -52.34" stroke="#132e65" stroke-width="1.5"></path>
        <path d="M1306.4 -52.34L1414.8 -63.74" stroke="#132e65" stroke-width="1.5"></path>
        <path d="M1306.4 -52.34L1241.47 45.15" stroke="#132e65" stroke-width="1.5"></path>
        <path d="M1306.4 -52.34L1412.02 45.79" stroke="#132e65" stroke-width="1.5"></path>
        <path d="M1306.4 -52.34L1241.16 194.04" stroke="#132e65" stroke-width="1.5"></path>
        <path d="M1241.47 45.15L1241.47 45.15" stroke="#132e65" stroke-width="1.5"></path>
        <path d="M1241.47 45.15L1241.16 194.04" stroke="#132e65" stroke-width="1.5"></path>
        <path d="M1241.16 194.04L1241.16 194.04" stroke="#132e65" stroke-width="1.5"></path>
        <path d="M1241.16 194.04L1251.94 402.62" stroke="#132e65" stroke-width="1.5"></path>
        <path d="M1241.16 194.04L1449.08 240.8" stroke="#132e65" stroke-width="1.5"></path>
        <path d="M1251.94 402.62L1251.94 402.62" stroke="#132e65" stroke-width="1.5"></path>
        <path d="M1251.94 402.62L1259.37 497.08" stroke="#132e65" stroke-width="1.5"></path>
        <path d="M1259.37 497.08L1259.37 497.08" stroke="#132e65" stroke-width="1.5"></path>
        <path d="M1259.37 497.08L1397.39 508.75" stroke="#132e65" stroke-width="1.5"></path>
        <path d="M1309.93 648.43L1309.93 648.43" stroke="#132e65" stroke-width="1.5"></path>
        <path d="M1309.93 648.43L1259.37 497.08" stroke="#132e65" stroke-width="1.5"></path>
        <path d="M1309.93 648.43L1397.39 508.75" stroke="#132e65" stroke-width="1.5"></path>
        <path d="M1414.8 -63.74L1414.8 -63.74" stroke="#132e65" stroke-width="1.5"></path>
        <path d="M1414.8 -63.74L1412.02 45.79" stroke="#132e65" stroke-width="1.5"></path>
        <path d="M1414.8 -63.74L1606.57 -96.07" stroke="#132e65" stroke-width="1.5"></path>
        <path d="M1414.8 -63.74L1241.47 45.15" stroke="#132e65" stroke-width="1.5"></path>
        <path d="M1414.8 -63.74L1555.62 109.31" stroke="#132e65" stroke-width="1.5"></path>
        <path d="M1412.02 45.79L1412.02 45.79" stroke="#132e65" stroke-width="1.5"></path>
        <path d="M1412.02 45.79L1555.62 109.31" stroke="#132e65" stroke-width="1.5"></path>
        <path d="M1412.02 45.79L1241.47 45.15" stroke="#132e65" stroke-width="1.5"></path>
        <path d="M1412.02 45.79L1449.08 240.8" stroke="#132e65" stroke-width="1.5"></path>
        <path d="M1412.02 45.79L1570.03 200.94" stroke="#132e65" stroke-width="1.5"></path>
        <path d="M1449.08 240.8L1449.08 240.8" stroke="#132e65" stroke-width="1.5"></path>
        <path d="M1449.08 240.8L1570.03 200.94" stroke="#132e65" stroke-width="1.5"></path>
        <path d="M1449.08 240.8L1414.32 368.01" stroke="#132e65" stroke-width="1.5"></path>
        <path d="M1449.08 240.8L1555.62 109.31" stroke="#132e65" stroke-width="1.5"></path>
        <path d="M1414.32 368.01L1414.32 368.01" stroke="#132e65" stroke-width="1.5"></path>
        <path d="M1414.32 368.01L1397.39 508.75" stroke="#132e65" stroke-width="1.5"></path>
        <path d="M1414.32 368.01L1251.94 402.62" stroke="#132e65" stroke-width="1.5"></path>
        <path d="M1414.32 368.01L1604.77 347.94" stroke="#132e65" stroke-width="1.5"></path>
        <path d="M1414.32 368.01L1259.37 497.08" stroke="#132e65" stroke-width="1.5"></path>
        <path d="M1397.39 508.75L1397.39 508.75" stroke="#132e65" stroke-width="1.5"></path>
        <path d="M1397.39 508.75L1547.64 530.12" stroke="#132e65" stroke-width="1.5"></path>
        <path d="M1606.57 -96.07L1606.57 -96.07" stroke="#132e65" stroke-width="1.5"></path>
        <path d="M1606.57 -96.07L1555.62 109.31" stroke="#132e65" stroke-width="1.5"></path>
        <path d="M1606.57 -96.07L1412.02 45.79" stroke="#132e65" stroke-width="1.5"></path>
        <path d="M1606.57 -96.07L1570.03 200.94" stroke="#132e65" stroke-width="1.5"></path>
        <path d="M1606.57 -96.07L1306.4 -52.34" stroke="#132e65" stroke-width="1.5"></path>
        <path d="M1555.62 109.31L1555.62 109.31" stroke="#132e65" stroke-width="1.5"></path>
        <path d="M1555.62 109.31L1570.03 200.94" stroke="#132e65" stroke-width="1.5"></path>
        <path d="M1570.03 200.94L1570.03 200.94" stroke="#132e65" stroke-width="1.5"></path>
        <path d="M1570.03 200.94L1604.77 347.94" stroke="#132e65" stroke-width="1.5"></path>
        <path d="M1570.03 200.94L1414.32 368.01" stroke="#132e65" stroke-width="1.5"></path>
        <path d="M1604.77 347.94L1604.77 347.94" stroke="#132e65" stroke-width="1.5"></path>
        <path d="M1604.77 347.94L1449.08 240.8" stroke="#132e65" stroke-width="1.5"></path>
        <path d="M1604.77 347.94L1547.64 530.12" stroke="#132e65" stroke-width="1.5"></path>
        <path d="M1604.77 347.94L1555.62 109.31" stroke="#132e65" stroke-width="1.5"></path>
        <path d="M1604.77 347.94L1397.39 508.75" stroke="#132e65" stroke-width="1.5"></path>
        <path d="M1547.64 530.12L1547.64 530.12" stroke="#132e65" stroke-width="1.5"></path>
        <path d="M1547.64 530.12L1552.16 637.56" stroke="#132e65" stroke-width="1.5"></path>
        <path d="M1547.64 530.12L1414.32 368.01" stroke="#132e65" stroke-width="1.5"></path>
        <path d="M1547.64 530.12L1309.93 648.43" stroke="#132e65" stroke-width="1.5"></path>
        <path d="M1552.16 637.56L1552.16 637.56" stroke="#132e65" stroke-width="1.5"></path>
        <path d="M1552.16 637.56L1397.39 508.75" stroke="#132e65" stroke-width="1.5"></path>
        <path d="M1552.16 637.56L1309.93 648.43" stroke="#132e65" stroke-width="1.5"></path>
        <circle r="5" cx="-93.05" cy="491.33" fill="#132e65"></circle>
        <circle r="5" cx="-75.33" cy="711.53" fill="#132e65"></circle>
        <circle r="5" cx="39.88" cy="497.48" fill="#132e65"></circle>
        <circle r="5" cx="91.16" cy="669.53" fill="#132e65"></circle>
        <circle r="5" cx="240.85" cy="366.3" fill="#132e65"></circle>
        <circle r="5" cx="226.17" cy="558.1" fill="#132e65"></circle>
        <circle r="5" cx="241.87" cy="691.63" fill="#132e65"></circle>
        <circle r="5" cx="345.91" cy="410.89" fill="#132e65"></circle>
        <circle r="5" cx="411.42" cy="548.88" fill="#132e65"></circle>
        <circle r="5" cx="406.99" cy="701" fill="#132e65"></circle>
        <circle r="5" cx="505.45" cy="392.54" fill="#132e65"></circle>
        <circle r="5" cx="517.84" cy="553.45" fill="#132e65"></circle>
        <circle r="5" cx="653.92" cy="238.06" fill="#132e65"></circle>
        <circle r="5" cx="666.27" cy="388.02" fill="#132e65"></circle>
        <circle r="5" cx="650.99" cy="491.01" fill="#132e65"></circle>
        <circle r="5" cx="639.09" cy="672.77" fill="#132e65"></circle>
        <circle r="5" cx="843.01" cy="80.29" fill="#132e65"></circle>
        <circle r="5" cx="843.42" cy="229.11" fill="#132e65"></circle>
        <circle r="5" cx="793.19" cy="376.24" fill="#132e65"></circle>
        <circle r="5" cx="819.92" cy="674.48" fill="#132e65"></circle>
        <circle r="5" cx="956.72" cy="-97.69" fill="#132e65"></circle>
        <circle r="5" cx="946.36" cy="96.58" fill="#132e65"></circle>
        <circle r="5" cx="983.72" cy="231.33" fill="#132e65"></circle>
        <circle r="5" cx="968.84" cy="341.73" fill="#132e65"></circle>
        <circle r="5" cx="968.4" cy="488.92" fill="#132e65"></circle>
        <circle r="5" cx="969.11" cy="651.83" fill="#132e65"></circle>
        <circle r="5" cx="1160.01" cy="-105.3" fill="#132e65"></circle>
        <circle r="5" cx="1089.65" cy="213.08" fill="#132e65"></circle>
        <circle r="5" cx="1121.14" cy="377.56" fill="#132e65"></circle>
        <circle r="5" cx="1155.31" cy="529.66" fill="#132e65"></circle>
        <circle r="5" cx="1140.47" cy="707.89" fill="#132e65"></circle>
        <circle r="5" cx="1306.4" cy="-52.34" fill="#132e65"></circle>
        <circle r="5" cx="1241.47" cy="45.15" fill="#132e65"></circle>
        <circle r="5" cx="1241.16" cy="194.04" fill="#132e65"></circle>
        <circle r="5" cx="1251.94" cy="402.62" fill="#132e65"></circle>
        <circle r="5" cx="1259.37" cy="497.08" fill="#132e65"></circle>
        <circle r="5" cx="1309.93" cy="648.43" fill="#132e65"></circle>
        <circle r="5" cx="1414.8" cy="-63.74" fill="#132e65"></circle>
        <circle r="5" cx="1412.02" cy="45.79" fill="#132e65"></circle>
        <circle r="5" cx="1449.08" cy="240.8" fill="#132e65"></circle>
        <circle r="5" cx="1414.32" cy="368.01" fill="#132e65"></circle>
        <circle r="5" cx="1397.39" cy="508.75" fill="#132e65"></circle>
        <circle r="5" cx="1606.57" cy="-96.07" fill="#132e65"></circle>
        <circle r="5" cx="1555.62" cy="109.31" fill="#132e65"></circle>
        <circle r="5" cx="1570.03" cy="200.94" fill="#132e65"></circle>
        <circle r="5" cx="1604.77" cy="347.94" fill="#132e65"></circle>
        <circle r="5" cx="1547.64" cy="530.12" fill="#132e65"></circle>
        <circle r="5" cx="1552.16" cy="637.56" fill="#132e65"></circle>
        <path d="M-100.32 540.34L-100.32 540.34" stroke="hsl(142.10000000000002, 76.2%, 47.2%)" stroke-width="1.5"></path>
        <path d="M-100.32 540.34L-41.33 651.68" stroke="hsl(142.10000000000002, 76.2%, 47.2%)" stroke-width="1.5"></path>
        <path d="M-100.32 540.34L47.05 530.34" stroke="hsl(142.10000000000002, 76.2%, 47.2%)" stroke-width="1.5"></path>
        <path d="M-100.32 540.34L95.61 676.86" stroke="hsl(142.10000000000002, 76.2%, 47.2%)" stroke-width="1.5"></path>
        <path d="M-100.32 540.34L224.98 656.29" stroke="hsl(142.10000000000002, 76.2%, 47.2%)" stroke-width="1.5"></path>
        <path d="M-100.32 540.34L245.03 490.32" stroke="hsl(142.10000000000002, 76.2%, 47.2%)" stroke-width="1.5"></path>
        <path d="M-100.32 540.34L377.8 492.72" stroke="hsl(142.10000000000002, 76.2%, 47.2%)" stroke-width="1.5"></path>
        <path d="M47.05 530.34L47.05 530.34" stroke="hsl(142.10000000000002, 76.2%, 47.2%)" stroke-width="1.5"></path>
        <path d="M47.05 530.34L-41.33 651.68" stroke="hsl(142.10000000000002, 76.2%, 47.2%)" stroke-width="1.5"></path>
        <path d="M47.05 530.34L95.61 676.86" stroke="hsl(142.10000000000002, 76.2%, 47.2%)" stroke-width="1.5"></path>
        <path d="M47.05 530.34L245.03 490.32" stroke="hsl(142.10000000000002, 76.2%, 47.2%)" stroke-width="1.5"></path>
        <path d="M47.05 530.34L224.98 656.29" stroke="hsl(142.10000000000002, 76.2%, 47.2%)" stroke-width="1.5"></path>
        <path d="M47.05 530.34L377.8 492.72" stroke="hsl(142.10000000000002, 76.2%, 47.2%)" stroke-width="1.5"></path>
        <path d="M503.29 501.03L503.29 501.03" stroke="hsl(142.10000000000002, 76.2%, 47.2%)" stroke-width="1.5"></path>
        <path d="M503.29 501.03L377.8 492.72" stroke="hsl(142.10000000000002, 76.2%, 47.2%)" stroke-width="1.5"></path>
        <path d="M503.29 501.03L637.69 511.91" stroke="hsl(142.10000000000002, 76.2%, 47.2%)" stroke-width="1.5"></path>
        <path d="M952.18 523.67L952.18 523.67" stroke="hsl(142.10000000000002, 76.2%, 47.2%)" stroke-width="1.5"></path>
        <path d="M952.18 523.67L981.58 410.28" stroke="hsl(142.10000000000002, 76.2%, 47.2%)" stroke-width="1.5"></path>
        <path d="M952.18 523.67L971.13 674.21" stroke="hsl(142.10000000000002, 76.2%, 47.2%)" stroke-width="1.5"></path>
        <path d="M971.13 674.21L971.13 674.21" stroke="hsl(142.10000000000002, 76.2%, 47.2%)" stroke-width="1.5"></path>
        <path d="M971.13 674.21L833.06 645.47" stroke="hsl(142.10000000000002, 76.2%, 47.2%)" stroke-width="1.5"></path>
        <path d="M1454.71 344.26L1454.71 344.26" stroke="hsl(142.10000000000002, 76.2%, 47.2%)" stroke-width="1.5"></path>
        <path d="M1454.71 344.26L1547.97 408.71" stroke="hsl(142.10000000000002, 76.2%, 47.2%)" stroke-width="1.5"></path>
        <path d="M1454.71 344.26L1404.68 231.81" stroke="hsl(142.10000000000002, 76.2%, 47.2%)" stroke-width="1.5"></path>
        <path d="M1417.27 652.13L1417.27 652.13" stroke="hsl(142.10000000000002, 76.2%, 47.2%)" stroke-width="1.5"></path>
        <path d="M1417.27 652.13L1544.8 661.88" stroke="hsl(142.10000000000002, 76.2%, 47.2%)" stroke-width="1.5"></path>
        <path d="M1417.27 652.13L1288.46 707.79" stroke="hsl(142.10000000000002, 76.2%, 47.2%)" stroke-width="1.5"></path>
        <path d="M1417.27 652.13L1310.93 532.53" stroke="hsl(142.10000000000002, 76.2%, 47.2%)" stroke-width="1.5"></path>
        <path d="M1417.27 652.13L1450.01 489.64" stroke="hsl(142.10000000000002, 76.2%, 47.2%)" stroke-width="1.5"></path>
        <path d="M1417.27 652.13L1572.64 492.2" stroke="hsl(142.10000000000002, 76.2%, 47.2%)" stroke-width="1.5"></path>
        <path d="M1563.17 -92.88L1563.17 -92.88" stroke="hsl(142.10000000000002, 76.2%, 47.2%)" stroke-width="1.5"></path>
        <path d="M1563.17 -92.88L1423.78 -53.73" stroke="hsl(142.10000000000002, 76.2%, 47.2%)" stroke-width="1.5"></path>
        <path d="M1563.17 -92.88L1588.29 56.23" stroke="hsl(142.10000000000002, 76.2%, 47.2%)" stroke-width="1.5"></path>
        <path d="M1588.29 56.23L1588.29 56.23" stroke="hsl(142.10000000000002, 76.2%, 47.2%)" stroke-width="1.5"></path>
        <path d="M1588.29 56.23L1426.08 76.81" stroke="hsl(142.10000000000002, 76.2%, 47.2%)" stroke-width="1.5"></path>
        <path d="M1588.29 56.23L1597.83 225.63" stroke="hsl(142.10000000000002, 76.2%, 47.2%)" stroke-width="1.5"></path>
        <path d="M1588.29 56.23L1423.78 -53.73" stroke="hsl(142.10000000000002, 76.2%, 47.2%)" stroke-width="1.5"></path>
        <path d="M1588.29 56.23L1404.68 231.81" stroke="hsl(142.10000000000002, 76.2%, 47.2%)" stroke-width="1.5"></path>
        <path d="M1547.97 408.71L1547.97 408.71" stroke="hsl(142.10000000000002, 76.2%, 47.2%)" stroke-width="1.5"></path>
        <path d="M1547.97 408.71L1572.64 492.2" stroke="hsl(142.10000000000002, 76.2%, 47.2%)" stroke-width="1.5"></path>
        <path d="M1547.97 408.71L1450.01 489.64" stroke="hsl(142.10000000000002, 76.2%, 47.2%)" stroke-width="1.5"></path>
        <path d="M1547.97 408.71L1597.83 225.63" stroke="hsl(142.10000000000002, 76.2%, 47.2%)" stroke-width="1.5"></path>
        <path d="M1547.97 408.71L1404.68 231.81" stroke="hsl(142.10000000000002, 76.2%, 47.2%)" stroke-width="1.5"></path>
        <path d="M1547.97 408.71L1544.8 661.88" stroke="hsl(142.10000000000002, 76.2%, 47.2%)" stroke-width="1.5"></path>
        <path d="M-41.33 651.68L-41.33 651.68" stroke="hsl(142.10000000000002, 76.2%, 47.2%)" stroke-width="1.5"></path>
        <path d="M-41.33 651.68L95.61 676.86" stroke="hsl(142.10000000000002, 76.2%, 47.2%)" stroke-width="1.5"></path>
        <path d="M-41.33 651.68L224.98 656.29" stroke="hsl(142.10000000000002, 76.2%, 47.2%)" stroke-width="1.5"></path>
        <path d="M-41.33 651.68L245.03 490.32" stroke="hsl(142.10000000000002, 76.2%, 47.2%)" stroke-width="1.5"></path>
        <path d="M-41.33 651.68L377.8 492.72" stroke="hsl(142.10000000000002, 76.2%, 47.2%)" stroke-width="1.5"></path>
        <path d="M95.61 676.86L95.61 676.86" stroke="hsl(142.10000000000002, 76.2%, 47.2%)" stroke-width="1.5"></path>
        <path d="M95.61 676.86L224.98 656.29" stroke="hsl(142.10000000000002, 76.2%, 47.2%)" stroke-width="1.5"></path>
        <path d="M245.03 490.32L245.03 490.32" stroke="hsl(142.10000000000002, 76.2%, 47.2%)" stroke-width="1.5"></path>
        <path d="M245.03 490.32L377.8 492.72" stroke="hsl(142.10000000000002, 76.2%, 47.2%)" stroke-width="1.5"></path>
        <path d="M245.03 490.32L224.98 656.29" stroke="hsl(142.10000000000002, 76.2%, 47.2%)" stroke-width="1.5"></path>
        <path d="M224.98 656.29L224.98 656.29" stroke="hsl(142.10000000000002, 76.2%, 47.2%)" stroke-width="1.5"></path>
        <path d="M377.8 492.72L377.8 492.72" stroke="hsl(142.10000000000002, 76.2%, 47.2%)" stroke-width="1.5"></path>
        <path d="M408.94 712.22L408.94 712.22" stroke="hsl(142.10000000000002, 76.2%, 47.2%)" stroke-width="1.5"></path>
        <path d="M408.94 712.22L518.68 709.93" stroke="hsl(142.10000000000002, 76.2%, 47.2%)" stroke-width="1.5"></path>
        <path d="M408.94 712.22L224.98 656.29" stroke="hsl(142.10000000000002, 76.2%, 47.2%)" stroke-width="1.5"></path>
        <path d="M518.68 709.93L518.68 709.93" stroke="hsl(142.10000000000002, 76.2%, 47.2%)" stroke-width="1.5"></path>
        <path d="M518.68 709.93L651.37 690.18" stroke="hsl(142.10000000000002, 76.2%, 47.2%)" stroke-width="1.5"></path>
        <path d="M518.68 709.93L503.29 501.03" stroke="hsl(142.10000000000002, 76.2%, 47.2%)" stroke-width="1.5"></path>
        <path d="M637.69 511.91L637.69 511.91" stroke="hsl(142.10000000000002, 76.2%, 47.2%)" stroke-width="1.5"></path>
        <path d="M637.69 511.91L651.37 690.18" stroke="hsl(142.10000000000002, 76.2%, 47.2%)" stroke-width="1.5"></path>
        <path d="M637.69 511.91L518.68 709.93" stroke="hsl(142.10000000000002, 76.2%, 47.2%)" stroke-width="1.5"></path>
        <path d="M637.69 511.91L833.06 645.47" stroke="hsl(142.10000000000002, 76.2%, 47.2%)" stroke-width="1.5"></path>
        <path d="M651.37 690.18L651.37 690.18" stroke="hsl(142.10000000000002, 76.2%, 47.2%)" stroke-width="1.5"></path>
        <path d="M651.37 690.18L833.06 645.47" stroke="hsl(142.10000000000002, 76.2%, 47.2%)" stroke-width="1.5"></path>
        <path d="M651.37 690.18L503.29 501.03" stroke="hsl(142.10000000000002, 76.2%, 47.2%)" stroke-width="1.5"></path>
        <path d="M833.73 344.69L833.73 344.69" stroke="hsl(142.10000000000002, 76.2%, 47.2%)" stroke-width="1.5"></path>
        <path d="M833.73 344.69L981.58 410.28" stroke="hsl(142.10000000000002, 76.2%, 47.2%)" stroke-width="1.5"></path>
        <path d="M833.73 344.69L985.16 243" stroke="hsl(142.10000000000002, 76.2%, 47.2%)" stroke-width="1.5"></path>
        <path d="M833.73 344.69L952.18 523.67" stroke="hsl(142.10000000000002, 76.2%, 47.2%)" stroke-width="1.5"></path>
        <path d="M833.73 344.69L637.69 511.91" stroke="hsl(142.10000000000002, 76.2%, 47.2%)" stroke-width="1.5"></path>
        <path d="M833.06 645.47L833.06 645.47" stroke="hsl(142.10000000000002, 76.2%, 47.2%)" stroke-width="1.5"></path>
        <path d="M833.06 645.47L952.18 523.67" stroke="hsl(142.10000000000002, 76.2%, 47.2%)" stroke-width="1.5"></path>
        <path d="M985.16 243L985.16 243" stroke="hsl(142.10000000000002, 76.2%, 47.2%)" stroke-width="1.5"></path>
        <path d="M985.16 243L1125.07 232.6" stroke="hsl(142.10000000000002, 76.2%, 47.2%)" stroke-width="1.5"></path>
        <path d="M985.16 243L981.58 410.28" stroke="hsl(142.10000000000002, 76.2%, 47.2%)" stroke-width="1.5"></path>
        <path d="M981.58 410.28L981.58 410.28" stroke="hsl(142.10000000000002, 76.2%, 47.2%)" stroke-width="1.5"></path>
        <path d="M1142.84 99.1L1142.84 99.1" stroke="hsl(142.10000000000002, 76.2%, 47.2%)" stroke-width="1.5"></path>
        <path d="M1142.84 99.1L1125.07 232.6" stroke="hsl(142.10000000000002, 76.2%, 47.2%)" stroke-width="1.5"></path>
        <path d="M1125.07 232.6L1125.07 232.6" stroke="hsl(142.10000000000002, 76.2%, 47.2%)" stroke-width="1.5"></path>
        <path d="M1125.07 232.6L1134.99 348.81" stroke="hsl(142.10000000000002, 76.2%, 47.2%)" stroke-width="1.5"></path>
        <path d="M1125.07 232.6L1281.9 188.37" stroke="hsl(142.10000000000002, 76.2%, 47.2%)" stroke-width="1.5"></path>
        <path d="M1125.07 232.6L981.58 410.28" stroke="hsl(142.10000000000002, 76.2%, 47.2%)" stroke-width="1.5"></path>
        <path d="M1125.07 232.6L1275.11 409.36" stroke="hsl(142.10000000000002, 76.2%, 47.2%)" stroke-width="1.5"></path>
        <path d="M1134.99 348.81L1134.99 348.81" stroke="hsl(142.10000000000002, 76.2%, 47.2%)" stroke-width="1.5"></path>
        <path d="M1134.99 348.81L1275.11 409.36" stroke="hsl(142.10000000000002, 76.2%, 47.2%)" stroke-width="1.5"></path>
        <path d="M1140.52 510.41L1140.52 510.41" stroke="hsl(142.10000000000002, 76.2%, 47.2%)" stroke-width="1.5"></path>
        <path d="M1140.52 510.41L1134.99 348.81" stroke="hsl(142.10000000000002, 76.2%, 47.2%)" stroke-width="1.5"></path>
        <path d="M1132.73 685.3L1132.73 685.3" stroke="hsl(142.10000000000002, 76.2%, 47.2%)" stroke-width="1.5"></path>
        <path d="M1132.73 685.3L1288.46 707.79" stroke="hsl(142.10000000000002, 76.2%, 47.2%)" stroke-width="1.5"></path>
        <path d="M1132.73 685.3L971.13 674.21" stroke="hsl(142.10000000000002, 76.2%, 47.2%)" stroke-width="1.5"></path>
        <path d="M1132.73 685.3L1140.52 510.41" stroke="hsl(142.10000000000002, 76.2%, 47.2%)" stroke-width="1.5"></path>
        <path d="M1132.73 685.3L1310.93 532.53" stroke="hsl(142.10000000000002, 76.2%, 47.2%)" stroke-width="1.5"></path>
        <path d="M1278.05 -66.42L1278.05 -66.42" stroke="hsl(142.10000000000002, 76.2%, 47.2%)" stroke-width="1.5"></path>
        <path d="M1278.05 -66.42L1296.17 66.42" stroke="hsl(142.10000000000002, 76.2%, 47.2%)" stroke-width="1.5"></path>
        <path d="M1278.05 -66.42L1423.78 -53.73" stroke="hsl(142.10000000000002, 76.2%, 47.2%)" stroke-width="1.5"></path>
        <path d="M1278.05 -66.42L1426.08 76.81" stroke="hsl(142.10000000000002, 76.2%, 47.2%)" stroke-width="1.5"></path>
        <path d="M1278.05 -66.42L1142.84 99.1" stroke="hsl(142.10000000000002, 76.2%, 47.2%)" stroke-width="1.5"></path>
        <path d="M1278.05 -66.42L1281.9 188.37" stroke="hsl(142.10000000000002, 76.2%, 47.2%)" stroke-width="1.5"></path>
        <path d="M1278.05 -66.42L1563.17 -92.88" stroke="hsl(142.10000000000002, 76.2%, 47.2%)" stroke-width="1.5"></path>
        <path d="M1296.17 66.42L1296.17 66.42" stroke="hsl(142.10000000000002, 76.2%, 47.2%)" stroke-width="1.5"></path>
        <path d="M1296.17 66.42L1281.9 188.37" stroke="hsl(142.10000000000002, 76.2%, 47.2%)" stroke-width="1.5"></path>
        <path d="M1296.17 66.42L1426.08 76.81" stroke="hsl(142.10000000000002, 76.2%, 47.2%)" stroke-width="1.5"></path>
        <path d="M1296.17 66.42L1142.84 99.1" stroke="hsl(142.10000000000002, 76.2%, 47.2%)" stroke-width="1.5"></path>
        <path d="M1296.17 66.42L1423.78 -53.73" stroke="hsl(142.10000000000002, 76.2%, 47.2%)" stroke-width="1.5"></path>
        <path d="M1281.9 188.37L1281.9 188.37" stroke="hsl(142.10000000000002, 76.2%, 47.2%)" stroke-width="1.5"></path>
        <path d="M1281.9 188.37L1404.68 231.81" stroke="hsl(142.10000000000002, 76.2%, 47.2%)" stroke-width="1.5"></path>
        <path d="M1281.9 188.37L1142.84 99.1" stroke="hsl(142.10000000000002, 76.2%, 47.2%)" stroke-width="1.5"></path>
        <path d="M1281.9 188.37L1426.08 76.81" stroke="hsl(142.10000000000002, 76.2%, 47.2%)" stroke-width="1.5"></path>
        <path d="M1275.11 409.36L1275.11 409.36" stroke="hsl(142.10000000000002, 76.2%, 47.2%)" stroke-width="1.5"></path>
        <path d="M1275.11 409.36L1310.93 532.53" stroke="hsl(142.10000000000002, 76.2%, 47.2%)" stroke-width="1.5"></path>
        <path d="M1275.11 409.36L1140.52 510.41" stroke="hsl(142.10000000000002, 76.2%, 47.2%)" stroke-width="1.5"></path>
        <path d="M1275.11 409.36L1454.71 344.26" stroke="hsl(142.10000000000002, 76.2%, 47.2%)" stroke-width="1.5"></path>
        <path d="M1275.11 409.36L1450.01 489.64" stroke="hsl(142.10000000000002, 76.2%, 47.2%)" stroke-width="1.5"></path>
        <path d="M1275.11 409.36L1404.68 231.81" stroke="hsl(142.10000000000002, 76.2%, 47.2%)" stroke-width="1.5"></path>
        <path d="M1310.93 532.53L1310.93 532.53" stroke="hsl(142.10000000000002, 76.2%, 47.2%)" stroke-width="1.5"></path>
        <path d="M1310.93 532.53L1450.01 489.64" stroke="hsl(142.10000000000002, 76.2%, 47.2%)" stroke-width="1.5"></path>
        <path d="M1288.46 707.79L1288.46 707.79" stroke="hsl(142.10000000000002, 76.2%, 47.2%)" stroke-width="1.5"></path>
        <path d="M1288.46 707.79L1310.93 532.53" stroke="hsl(142.10000000000002, 76.2%, 47.2%)" stroke-width="1.5"></path>
        <path d="M1288.46 707.79L1140.52 510.41" stroke="hsl(142.10000000000002, 76.2%, 47.2%)" stroke-width="1.5"></path>
        <path d="M1288.46 707.79L1544.8 661.88" stroke="hsl(142.10000000000002, 76.2%, 47.2%)" stroke-width="1.5"></path>
        <path d="M1423.78 -53.73L1423.78 -53.73" stroke="hsl(142.10000000000002, 76.2%, 47.2%)" stroke-width="1.5"></path>
        <path d="M1423.78 -53.73L1426.08 76.81" stroke="hsl(142.10000000000002, 76.2%, 47.2%)" stroke-width="1.5"></path>
        <path d="M1426.08 76.81L1426.08 76.81" stroke="hsl(142.10000000000002, 76.2%, 47.2%)" stroke-width="1.5"></path>
        <path d="M1404.68 231.81L1404.68 231.81" stroke="hsl(142.10000000000002, 76.2%, 47.2%)" stroke-width="1.5"></path>
        <path d="M1404.68 231.81L1426.08 76.81" stroke="hsl(142.10000000000002, 76.2%, 47.2%)" stroke-width="1.5"></path>
        <path d="M1404.68 231.81L1597.83 225.63" stroke="hsl(142.10000000000002, 76.2%, 47.2%)" stroke-width="1.5"></path>
        <path d="M1404.68 231.81L1296.17 66.42" stroke="hsl(142.10000000000002, 76.2%, 47.2%)" stroke-width="1.5"></path>
        <path d="M1450.01 489.64L1450.01 489.64" stroke="hsl(142.10000000000002, 76.2%, 47.2%)" stroke-width="1.5"></path>
        <path d="M1450.01 489.64L1572.64 492.2" stroke="hsl(142.10000000000002, 76.2%, 47.2%)" stroke-width="1.5"></path>
        <path d="M1450.01 489.64L1454.71 344.26" stroke="hsl(142.10000000000002, 76.2%, 47.2%)" stroke-width="1.5"></path>
        <path d="M1597.83 225.63L1597.83 225.63" stroke="hsl(142.10000000000002, 76.2%, 47.2%)" stroke-width="1.5"></path>
        <path d="M1597.83 225.63L1454.71 344.26" stroke="hsl(142.10000000000002, 76.2%, 47.2%)" stroke-width="1.5"></path>
        <path d="M1572.64 492.2L1572.64 492.2" stroke="hsl(142.10000000000002, 76.2%, 47.2%)" stroke-width="1.5"></path>
        <path d="M1544.8 661.88L1544.8 661.88" stroke="hsl(142.10000000000002, 76.2%, 47.2%)" stroke-width="1.5"></path>
        <path d="M1544.8 661.88L1572.64 492.2" stroke="hsl(142.10000000000002, 76.2%, 47.2%)" stroke-width="1.5"></path>
        <path d="M1544.8 661.88L1450.01 489.64" stroke="hsl(142.10000000000002, 76.2%, 47.2%)" stroke-width="1.5"></path>
        <path d="M1544.8 661.88L1310.93 532.53" stroke="hsl(142.10000000000002, 76.2%, 47.2%)" stroke-width="1.5"></path>
        <circle r="25" cx="-100.32" cy="540.34" fill="url(&quot;#SvgjsRadialGradient1013&quot;)"></circle>
        <circle r="25" cx="47.05" cy="530.34" fill="url(&quot;#SvgjsRadialGradient1013&quot;)"></circle>
        <circle r="25" cx="503.29" cy="501.03" fill="url(&quot;#SvgjsRadialGradient1013&quot;)"></circle>
        <circle r="25" cx="952.18" cy="523.67" fill="url(&quot;#SvgjsRadialGradient1013&quot;)"></circle>
        <circle r="25" cx="971.13" cy="674.21" fill="url(&quot;#SvgjsRadialGradient1013&quot;)"></circle>
        <circle r="25" cx="1454.71" cy="344.26" fill="url(&quot;#SvgjsRadialGradient1013&quot;)"></circle>
        <circle r="25" cx="1417.27" cy="652.13" fill="url(&quot;#SvgjsRadialGradient1013&quot;)"></circle>
        <circle r="25" cx="1563.17" cy="-92.88" fill="url(&quot;#SvgjsRadialGradient1013&quot;)"></circle>
        <circle r="25" cx="1588.29" cy="56.23" fill="url(&quot;#SvgjsRadialGradient1013&quot;)"></circle>
        <circle r="25" cx="1547.97" cy="408.71" fill="url(&quot;#SvgjsRadialGradient1013&quot;)"></circle>
        <circle r="5" cx="-41.33" cy="651.68" fill="#8bd1a5"></circle>
        <circle r="5" cx="95.61" cy="676.86" fill="#8bd1a5"></circle>
        <circle r="5" cx="245.03" cy="490.32" fill="#8bd1a5"></circle>
        <circle r="5" cx="224.98" cy="656.29" fill="#8bd1a5"></circle>
        <circle r="5" cx="377.8" cy="492.72" fill="#8bd1a5"></circle>
        <circle r="5" cx="408.94" cy="712.22" fill="#8bd1a5"></circle>
        <circle r="5" cx="518.68" cy="709.93" fill="#8bd1a5"></circle>
        <circle r="5" cx="637.69" cy="511.91" fill="#8bd1a5"></circle>
        <circle r="5" cx="651.37" cy="690.18" fill="#8bd1a5"></circle>
        <circle r="5" cx="833.73" cy="344.69" fill="#8bd1a5"></circle>
        <circle r="5" cx="833.06" cy="645.47" fill="#8bd1a5"></circle>
        <circle r="5" cx="985.16" cy="243" fill="#8bd1a5"></circle>
        <circle r="5" cx="981.58" cy="410.28" fill="#8bd1a5"></circle>
        <circle r="5" cx="1142.84" cy="99.1" fill="#8bd1a5"></circle>
        <circle r="5" cx="1125.07" cy="232.6" fill="#8bd1a5"></circle>
        <circle r="5" cx="1134.99" cy="348.81" fill="#8bd1a5"></circle>
        <circle r="5" cx="1140.52" cy="510.41" fill="#8bd1a5"></circle>
        <circle r="5" cx="1132.73" cy="685.3" fill="#8bd1a5"></circle>
        <circle r="5" cx="1278.05" cy="-66.42" fill="#8bd1a5"></circle>
        <circle r="5" cx="1296.17" cy="66.42" fill="#8bd1a5"></circle>
        <circle r="5" cx="1281.9" cy="188.37" fill="#8bd1a5"></circle>
        <circle r="5" cx="1275.11" cy="409.36" fill="#8bd1a5"></circle>
        <circle r="5" cx="1310.93" cy="532.53" fill="#8bd1a5"></circle>
        <circle r="5" cx="1288.46" cy="707.79" fill="#8bd1a5"></circle>
        <circle r="5" cx="1423.78" cy="-53.73" fill="#8bd1a5"></circle>
        <circle r="5" cx="1426.08" cy="76.81" fill="#8bd1a5"></circle>
        <circle r="5" cx="1404.68" cy="231.81" fill="#8bd1a5"></circle>
        <circle r="5" cx="1450.01" cy="489.64" fill="#8bd1a5"></circle>
        <circle r="5" cx="1597.83" cy="225.63" fill="#8bd1a5"></circle>
        <circle r="5" cx="1572.64" cy="492.2" fill="#8bd1a5"></circle>
        <circle r="5" cx="1544.8" cy="661.88" fill="#8bd1a5"></circle>
    </g>
    <defs>
        <mask id="SvgjsMask1012">
            <rect width="1440" height="560" fill="#ffffff"></rect>
        </mask>
        <radialGradient id="SvgjsRadialGradient1013">
            <stop stop-color="#ffffff" offset="0.1"></stop>
            <stop stop-color="rgba(22, 163, 74, 1)" offset="0.2"></stop>
            <stop stop-color="rgba(22, 163, 74, 0)" offset="1"></stop>
        </radialGradient>
    </defs>
</svg>